<?xml version="1.0" standalone="no"?>
<!DOCTYPE svg PUBLIC "-//W3C//DTD SVG 20010904//EN"
 "http://www.w3.org/TR/2001/REC-SVG-20010904/DTD/svg10.dtd">
<svg version="1.0" xmlns="http://www.w3.org/2000/svg"
 width="700.000000pt" height="700.000000pt" viewBox="0 0 700.000000 700.000000"
 preserveAspectRatio="xMidYMid meet">
<metadata>
Created by potrace 1.14, written by Peter Selinger 2001-2017
</metadata>
<g transform="translate(0.000000,700.000000) scale(0.100000,-0.100000)"
fill="#000000" stroke="none">
<path d="M4540 6343 c-239 -57 -445 -106 -457 -109 -34 -7 -772 -181 -826
-194 -26 -7 -52 -20 -57 -30 -5 -9 -9 -83 -9 -163 0 -81 -1 -154 -1 -162 0
-16 -25 -32 -61 -39 -61 -11 -297 -66 -312 -72 -10 -3 -17 -17 -18 -33 -1 -57
2 -226 5 -228 1 -2 25 1 52 6 29 6 51 6 55 0 8 -14 5 -2446 -3 -2455 -6 -6
-236 -9 -364 -5 l-21 1 1 995 c1 547 -3 1008 -7 1025 -5 18 -14 30 -25 31 -9
0 -24 2 -33 4 -8 1 -42 6 -75 10 -32 4 -70 8 -84 10 -14 2 -52 6 -85 10 -33 4
-67 8 -75 10 -8 2 -44 6 -80 10 -36 4 -72 9 -81 10 -9 2 -40 6 -70 10 -154 18
-351 45 -386 53 -60 14 -150 5 -284 -27 -68 -16 -169 -39 -224 -51 -55 -12
-109 -23 -120 -26 -11 -2 -31 -6 -45 -9 -14 -4 -36 -8 -50 -11 -14 -3 -144
-32 -290 -64 -146 -33 -276 -61 -290 -64 -53 -9 -125 -30 -130 -37 -6 -9 -6
-3627 1 -3633 2 -2 27 -7 54 -10 124 -14 152 -17 180 -21 17 -2 57 -7 90 -10
33 -3 71 -8 84 -10 14 -2 54 -7 90 -11 36 -3 72 -7 81 -9 15 -3 74 -10 163
-20 83 -9 128 -14 292 -35 88 -11 180 -22 205 -24 54 -6 224 -25 262 -30 l27
-4 3 551 c3 544 3 553 25 592 25 48 66 93 111 124 32 22 139 69 177 77 104 23
259 25 360 4 189 -39 332 -141 377 -267 15 -43 17 -112 17 -627 0 -318 2 -580
4 -582 1 -2 21 -5 42 -8 124 -15 251 -31 338 -41 23 -3 76 -9 117 -15 41 -5
96 -11 123 -14 195 -23 203 -24 292 -36 44 -5 103 -12 130 -15 67 -7 125 -15
155 -20 14 -2 54 -7 90 -11 36 -4 74 -8 85 -9 11 -2 45 -6 75 -9 30 -4 66 -8
80 -11 14 -2 54 -7 90 -10 36 -4 72 -8 80 -10 8 -2 46 -7 84 -10 38 -3 72 -8
75 -9 13 -8 161 -20 241 -20 81 0 123 4 255 24 33 5 85 12 115 15 59 6 101 11
195 25 33 5 80 12 105 15 25 3 61 8 81 11 20 3 56 7 80 9 48 3 112 10 229 25
41 5 109 12 150 16 41 3 84 8 95 10 32 6 304 42 365 48 90 9 213 26 232 32 16
5 17 134 17 2147 0 1178 0 2186 1 2240 l0 98 33 -5 c17 -2 62 -8 100 -11 l67
-7 0 48 c2 141 2 201 1 220 -1 22 -39 44 -84 49 -12 2 -62 12 -112 23 -49 12
-124 28 -165 37 -41 9 -78 22 -82 28 -4 7 -8 102 -8 213 0 179 -2 203 -17 216
-15 12 -210 66 -298 82 -11 2 -40 9 -65 16 -25 7 -52 13 -61 15 -8 2 -44 10
-80 19 -35 9 -73 18 -84 20 -11 3 -78 19 -150 36 -71 17 -139 33 -150 36 -11
2 -86 20 -165 39 -122 30 -371 91 -405 99 -5 1 -206 -45 -445 -101z m-99 -250
c2 -91 -3 -149 -14 -159 -10 -10 -125 -39 -237 -60 -14 -3 -63 -14 -110 -24
-170 -38 -526 -112 -557 -117 l-33 -5 0 96 0 95 73 16 c39 8 82 17 95 20 13 2
31 6 40 9 9 3 28 7 42 10 14 3 115 25 225 51 110 25 232 52 270 61 79 17 95
21 145 33 58 15 60 14 61 -26z m1404 -108 c61 -14 119 -27 130 -29 132 -27
224 -51 241 -61 18 -12 20 -21 18 -100 -2 -48 -4 -89 -6 -90 -2 -2 -73 12
-160 30 -86 18 -169 36 -185 39 -15 2 -95 19 -178 36 -82 17 -161 34 -175 36
-13 3 -56 12 -95 20 -38 9 -83 18 -99 21 -77 13 -76 12 -76 126 l0 104 238
-53 c130 -29 287 -65 347 -79z m-790 -639 c11 -2 36 -7 55 -10 210 -37 563
-99 593 -103 21 -3 41 -11 44 -17 4 -6 7 -66 8 -134 l0 -123 -50 6 c-27 3 -61
7 -75 9 -126 22 -186 32 -250 41 -25 3 -52 8 -60 10 -8 2 -35 6 -60 9 -25 3
-56 8 -70 11 -14 3 -44 8 -67 11 -22 3 -63 8 -90 12 l-48 7 -3 142 -3 142 28
-5 c16 -3 37 -6 48 -8z m-376 -140 c0 -68 -4 -128 -8 -134 -6 -11 -123 -33
-381 -72 -74 -11 -144 -22 -155 -24 -11 -2 -40 -7 -65 -10 -25 -3 -70 -10
-100 -15 -30 -5 -58 -7 -63 -4 -4 2 -6 60 -5 128 l2 123 130 22 c72 13 142 24
156 27 14 2 48 8 75 13 28 5 66 12 85 14 19 3 46 8 60 10 54 10 147 26 185 32
22 3 41 7 42 8 1 1 11 2 23 3 20 2 21 -2 19 -121z m1256 -16 c22 -5 65 -12 95
-16 30 -3 57 -8 60 -9 3 -2 102 -20 220 -40 118 -20 225 -38 238 -41 21 -4 22
-8 22 -130 l0 -126 -52 6 c-28 4 -61 9 -72 11 -12 2 -37 7 -56 10 -172 25
-247 37 -260 40 -8 2 -35 7 -60 10 -25 3 -54 8 -65 10 -11 1 -44 6 -72 10 -29
4 -53 12 -54 19 -6 66 -2 256 6 256 6 0 28 -5 50 -10z m-2167 -141 c-2 -96 -5
-122 -18 -129 -14 -7 -152 -32 -250 -45 -25 -3 -67 -10 -95 -15 -27 -5 -70
-12 -95 -15 -25 -3 -56 -8 -70 -10 -14 -3 -38 -7 -55 -9 -16 -2 -48 -7 -71
-11 l-41 -6 2 113 c1 62 3 116 4 120 1 7 113 31 196 42 11 2 34 6 50 9 17 3
46 9 65 11 19 3 49 8 65 11 84 16 153 28 180 32 17 3 46 8 65 12 76 15 71 23
68 -110z m1339 -154 c13 -2 40 -6 60 -9 21 -3 56 -9 78 -11 22 -3 51 -8 65
-10 14 -3 43 -7 65 -10 22 -3 69 -10 105 -15 83 -12 124 -18 180 -25 99 -13
90 2 90 -151 0 -124 -1 -135 -17 -130 -10 3 -63 10 -118 16 -55 6 -111 13
-125 15 -14 2 -47 6 -75 10 -27 3 -59 7 -70 9 -11 2 -47 7 -80 11 -33 4 -71 8
-85 10 -14 2 -47 6 -75 9 -134 16 -132 16 -135 51 -1 11 -2 71 -1 134 l1 113
58 -7 c31 -4 67 -9 79 -10z m-428 -130 c-3 -134 -6 -143 -56 -150 -26 -3 -237
-30 -313 -40 -19 -2 -57 -7 -85 -10 -27 -4 -75 -10 -105 -15 -30 -5 -86 -13
-125 -16 -38 -3 -74 -7 -80 -8 -12 -1 -19 224 -7 242 5 7 24 15 43 18 19 3 59
9 89 14 30 5 75 12 100 15 62 7 385 55 440 65 25 4 58 8 73 9 l28 1 -2 -125z
m1326 -15 c44 -6 91 -12 105 -14 14 -2 46 -7 71 -10 25 -4 57 -9 70 -11 59 -9
178 -26 217 -31 89 -11 87 -7 86 -136 -1 -112 -7 -144 -24 -133 -5 3 -30 8
-57 11 -26 2 -73 9 -103 14 -30 5 -81 11 -114 15 -32 4 -68 8 -80 10 -11 2
-42 6 -68 9 -94 11 -144 18 -183 25 l-40 7 -1 124 c-1 69 1 129 3 133 3 4 12
6 21 3 10 -3 53 -10 97 -16z m-2240 -125 l0 -123 -55 -7 c-30 -4 -68 -8 -85
-10 -16 -3 -68 -9 -115 -15 -47 -6 -96 -13 -110 -15 -14 -2 -50 -7 -80 -10
-30 -3 -97 -12 -148 -19 -51 -7 -95 -9 -98 -5 -11 18 -2 219 10 229 7 5 33 12
57 15 24 3 55 7 69 10 41 8 78 13 205 30 66 9 143 20 170 25 28 5 75 12 105
16 30 3 57 8 59 10 12 12 16 -19 16 -131z m-2500 -33 c1 -114 6 -107 -85 -117
-30 -3 -62 -8 -70 -10 -14 -4 -72 -13 -135 -21 -16 -2 -41 -6 -55 -8 -14 -3
-45 -8 -70 -12 -25 -3 -49 -6 -55 -7 -6 -1 -11 39 -13 101 -1 56 1 102 5 103
4 0 105 17 223 38 118 22 224 38 235 37 19 -1 20 -8 20 -104z m395 93 c10 -2
53 -6 97 -10 43 -3 87 -8 98 -10 11 -2 32 -4 46 -4 l26 -1 -1 -101 0 -101
-100 7 c-56 3 -114 8 -131 10 -16 3 -61 7 -100 10 -40 3 -76 11 -84 19 -10 10
-14 42 -16 106 l-1 91 74 -6 c40 -4 82 -8 92 -10z m463 -50 c38 -4 82 -8 97
-10 16 -2 59 -7 96 -10 38 -3 71 -10 75 -16 3 -5 5 -49 4 -97 -1 -69 -4 -87
-16 -86 -30 2 -187 14 -259 21 -41 3 -84 6 -95 7 -18 1 -20 9 -23 102 l-3 101
28 -3 c15 -2 59 -6 96 -9z m-1435 -137 c-2 -60 -7 -103 -13 -103 -5 -1 -32 -4
-60 -9 -27 -4 -66 -9 -85 -12 -19 -3 -44 -6 -55 -9 -11 -2 -44 -7 -74 -10 -30
-4 -75 -10 -100 -15 -26 -5 -48 -5 -51 0 -7 11 -5 178 1 184 4 4 158 32 284
52 22 3 58 10 80 14 81 16 76 22 73 -92z m4402 -63 c36 -3 76 -8 90 -10 14 -2
88 -11 165 -20 77 -9 156 -18 175 -20 122 -16 178 -23 206 -24 20 -1 21 -6 21
-137 l-1 -135 -45 5 c-65 8 -136 15 -211 22 -86 7 -143 12 -199 18 -25 3 -93
10 -151 16 -58 5 -118 12 -135 15 l-30 5 2 125 c1 140 5 159 30 151 10 -3 47
-8 83 -11z m-425 -122 c-1 -68 -5 -127 -11 -133 -9 -9 -32 -12 -156 -25 -102
-11 -154 -16 -188 -20 -19 -2 -69 -7 -110 -10 -41 -3 -86 -8 -100 -10 -14 -2
-59 -7 -100 -10 -41 -4 -83 -9 -92 -11 -17 -5 -18 6 -18 125 0 98 3 131 13
131 6 0 41 4 77 9 36 5 96 12 133 16 37 3 76 8 85 10 9 1 44 6 77 9 33 4 78 9
100 11 91 12 123 15 180 21 33 3 62 8 65 10 2 3 13 4 25 2 19 -3 20 -10 20
-125z m-3000 42 c28 -2 93 -7 145 -10 52 -4 101 -12 108 -18 9 -7 12 -36 10
-101 l-3 -91 -45 2 c-55 1 -257 13 -322 18 -26 2 -52 6 -58 10 -6 3 -10 48
-10 106 l0 99 63 -5 c34 -3 85 -7 112 -10z m-400 -104 c0 -55 -3 -102 -5 -104
-3 -3 -27 -8 -55 -11 -27 -4 -66 -9 -85 -11 -19 -3 -57 -7 -85 -10 -27 -3 -62
-8 -76 -10 -14 -3 -51 -7 -81 -10 -30 -3 -64 -7 -76 -10 -21 -4 -22 -1 -22 99
l0 103 83 12 c45 7 97 14 115 16 18 2 49 6 70 9 20 3 60 8 87 12 28 3 52 8 54
10 2 2 21 4 41 4 l36 0 -1 -99z m2490 -40 c0 -130 -5 -140 -66 -142 -21 -1
-42 -2 -46 -3 -8 -2 -158 -18 -203 -21 -31 -2 -155 -15 -195 -20 -16 -2 -65
-7 -107 -10 l-78 -7 0 108 c0 60 4 114 8 121 4 6 34 14 67 18 33 3 67 8 75 10
8 2 44 7 80 10 36 4 79 9 95 11 17 2 93 11 170 20 77 9 141 17 143 18 1 2 15
3 30 2 l27 -1 0 -114z m2255 104 c63 -8 140 -17 170 -20 30 -3 69 -8 85 -10
17 -2 73 -9 125 -15 52 -7 104 -13 115 -15 11 -2 30 -4 43 -4 22 -1 22 -3 22
-127 l0 -126 -77 6 c-43 4 -94 8 -113 11 -33 3 -65 7 -200 20 -30 3 -73 8 -95
10 -77 8 -180 18 -192 18 -14 0 -15 2 -15 142 0 125 0 125 10 125 4 0 59 -7
122 -15z m-3755 -12 c44 -3 91 -7 105 -7 25 -2 25 -3 25 -99 l0 -97 -75 5
c-41 3 -124 7 -184 10 -61 3 -113 8 -117 12 -9 9 -11 46 -10 132 l1 63 88 -6
c48 -3 123 -9 167 -13z m-1564 -60 c6 -161 4 -169 -37 -177 -11 -2 -44 -7 -74
-11 -66 -8 -93 -12 -145 -19 -22 -3 -65 -8 -95 -11 -30 -3 -63 -8 -72 -11 -10
-3 -18 -2 -19 3 -4 36 -3 177 2 185 5 8 341 63 412 67 23 1 27 -3 28 -26z
m1186 -237 c18 -1 36 -5 39 -9 4 -4 8 -48 8 -97 l1 -90 -214 2 -215 3 -1 103
-2 104 176 -7 c97 -3 190 -7 208 -9z m-622 -113 c0 -63 -3 -103 -10 -104 -5
-1 -14 -2 -20 -3 -5 -1 -46 -5 -90 -10 -44 -4 -96 -9 -115 -11 -19 -3 -66 -7
-105 -10 -38 -3 -87 -8 -107 -11 l-38 -5 0 104 c0 76 3 104 13 104 6 0 41 3
77 7 62 6 94 10 178 21 20 3 66 8 102 11 36 4 67 8 69 10 2 2 13 3 25 2 20 -2
21 -8 21 -105z m1085 82 c19 -1 40 -3 45 -4 9 -1 10 -52 6 -158 l-1 -23 -195
0 c-107 0 -195 3 -196 8 -1 10 -1 119 0 160 l1 33 153 -7 c83 -3 168 -8 187
-9z m2328 -119 l-3 -130 -26 -7 c-15 -3 -71 -10 -125 -13 -55 -4 -121 -9 -149
-11 -95 -9 -180 -15 -275 -21 -189 -12 -190 -12 -191 5 -1 9 -2 67 -3 128 l-1
113 30 2 c45 2 183 14 275 23 32 3 106 10 235 20 83 7 170 16 172 18 1 1 15 2
32 2 l32 1 -3 -130z m515 119 c30 -4 90 -9 232 -20 33 -3 78 -7 100 -10 22 -2
78 -7 125 -11 47 -3 88 -8 91 -10 3 -2 6 -62 6 -134 l0 -132 -101 7 c-56 3
-121 8 -146 10 -25 2 -83 7 -130 10 -47 3 -105 8 -130 10 -25 2 -88 7 -140 10
-52 4 -97 9 -100 12 -3 2 -5 65 -6 140 l0 135 83 -6 c46 -4 98 -8 116 -11z
m-4499 -144 c-1 -106 -4 -110 -74 -112 -25 0 -54 -2 -65 -4 -19 -4 -45 -7
-205 -20 -41 -4 -81 -8 -88 -10 -6 -3 -12 -1 -13 3 -4 32 -3 185 1 187 5 3 40
8 130 20 34 4 63 7 185 21 33 3 61 7 62 8 1 1 17 2 35 1 l33 0 -1 -94z m3076
-57 c0 -68 -3 -124 -7 -125 -35 -4 -72 -8 -163 -14 -58 -3 -121 -8 -140 -10
-85 -8 -261 -19 -320 -20 l-65 0 2 114 c1 62 3 115 5 116 2 2 35 6 73 10 39 3
84 8 100 10 17 2 68 7 115 10 47 4 101 8 120 10 19 2 78 7 130 10 52 4 96 8
98 10 2 1 14 3 27 3 l25 0 0 -124z m2325 110 c22 -2 70 -6 107 -9 37 -3 84 -7
105 -9 64 -8 207 -19 225 -18 28 1 31 -14 32 -141 l1 -119 -100 7 c-55 4 -125
9 -155 10 -30 2 -82 6 -115 9 -33 3 -107 8 -165 12 -58 4 -112 8 -120 9 -12 2
-15 25 -16 134 l-2 133 82 -7 c44 -4 99 -9 121 -11z m-4168 -296 c0 -51 -3
-97 -7 -103 -9 -11 -395 -13 -406 -2 -6 5 -9 147 -5 190 1 4 95 7 210 7 l208
0 0 -92z m464 73 c3 -1 5 -44 5 -96 l-1 -95 -191 0 -191 0 0 93 c0 50 1 94 2
97 3 5 354 5 376 1z m-1122 -126 c1 -79 -1 -105 -11 -106 -7 -1 -24 -2 -38 -4
-29 -3 -184 -13 -320 -21 -52 -3 -100 -7 -107 -9 -8 -3 -12 25 -11 101 l0 104
26 1 c15 0 34 2 42 3 8 2 52 6 97 10 96 7 217 18 220 20 1 0 24 2 51 4 l50 2
1 -105z m-574 -47 c1 -118 41 -102 -303 -124 -52 -3 -104 -7 -117 -8 -22 -3
-23 -1 -23 96 0 93 1 98 21 99 12 0 29 2 38 4 9 1 52 6 95 9 185 15 229 18
232 21 1 1 14 2 29 1 l26 -1 2 -97z m4476 27 c74 -4 150 -8 169 -10 19 -2 91
-6 160 -10 175 -9 241 -14 251 -21 5 -3 9 -63 8 -135 l0 -129 -102 4 c-114 6
-366 17 -472 21 -38 2 -96 3 -127 4 l-58 1 0 144 c0 136 1 145 19 141 10 -2
79 -6 152 -10z m-491 -140 l0 -135 -62 -1 c-35 0 -88 -2 -118 -4 -30 -1 -134
-5 -230 -9 -96 -4 -217 -9 -267 -12 -72 -4 -93 -2 -94 8 -4 42 -3 240 1 243 3
2 59 6 125 10 66 4 143 8 170 10 28 2 106 6 175 10 69 4 126 8 127 8 1 1 40 3
87 5 l86 2 0 -135z m1410 79 c63 -3 140 -8 170 -9 30 -2 107 -7 170 -10 63 -4
121 -8 128 -8 6 0 12 -12 12 -26 1 -14 2 -72 3 -129 l2 -103 -100 6 c-108 5
-258 12 -454 20 -68 2 -126 7 -129 10 -4 4 -6 178 -3 248 1 14 8 16 44 13 23
-3 94 -8 157 -12z m-2319 -16 c4 -59 -4 -225 -10 -231 -9 -9 -52 -12 -281 -21
-74 -3 -195 -9 -267 -12 l-133 -6 0 121 c0 67 3 121 8 122 4 0 39 2 77 4 39 2
104 6 145 9 41 3 129 9 195 12 66 3 121 7 122 8 1 1 33 3 72 4 53 2 71 0 72
-10z m-1840 -113 c0 -8 1 -44 1 -80 0 -36 -1 -74 -1 -85 -1 -20 -6 -20 -208
-18 l-208 3 0 98 0 97 207 0 c178 0 208 -2 209 -15z m469 -80 l0 -95 -195 0
-195 0 0 95 0 95 195 0 195 0 0 -95z m-1130 -87 l0 -108 -77 -1 c-122 -1 -335
-9 -370 -13 -40 -5 -41 0 -41 117 l0 87 37 1 c20 0 56 2 81 4 25 2 97 6 160 9
63 4 115 8 116 9 1 1 23 2 48 2 l46 0 0 -107z m-575 -28 c0 -60 -4 -100 -10
-101 -18 -2 -137 -7 -286 -13 l-146 -6 1 94 c1 52 3 97 6 99 3 3 66 8 140 12
74 4 136 8 137 8 1 1 37 3 80 5 l79 3 -1 -101z m4670 -65 c121 -4 247 -9 280
-10 33 -2 72 -4 87 -4 l26 -1 -1 -127 -2 -128 -369 -2 c-223 -2 -372 1 -376 7
-4 7 -6 246 -1 272 0 3 31 5 69 3 37 -2 166 -7 287 -10z m-683 -132 c-2 -71
-6 -131 -10 -135 -4 -4 -178 -9 -387 -13 l-380 -5 0 127 0 128 40 2 c22 1 148
4 280 8 132 4 241 8 242 8 1 1 50 3 110 5 l108 2 -3 -127z m-2288 25 c3 -120
3 -120 -84 -124 -41 -1 -126 -5 -187 -8 l-113 -6 0 100 0 100 48 1 c109 1 317
11 321 15 10 10 14 -10 15 -78z m3891 66 c110 -4 207 -6 215 -6 8 0 25 -1 36
-3 20 -5 21 -10 21 -125 l-1 -120 -335 2 -335 3 -1 120 c0 66 1 126 3 133 3 9
28 11 101 8 53 -3 186 -8 296 -12z m-2517 -126 l3 -128 -351 0 -350 0 0 110
c0 105 1 111 23 119 12 5 127 11 256 15 129 4 236 8 237 9 1 1 42 2 91 2 l88
0 3 -127z m-1832 22 l-1 -100 -45 -1 c-25 -1 -58 -2 -75 -4 -16 -2 -91 -6
-167 -10 l-136 -7 2 94 c1 52 5 99 9 104 3 6 41 12 84 13 43 1 78 3 80 4 1 1
58 3 126 5 l125 2 -2 -100z m-668 -118 l-3 -105 -220 0 c-121 1 -230 2 -242 2
-21 1 -22 5 -21 95 0 110 -12 101 143 105 55 1 101 3 102 4 1 1 56 3 123 3
l121 2 -3 -106z m-573 -4 c0 -51 -3 -97 -7 -103 -4 -6 -87 -9 -225 -7 l-218 3
0 92 1 92 100 3 c54 1 102 4 107 5 4 1 60 3 125 5 l117 3 0 -93z m3971 -201
c5 -4 8 -63 8 -130 l1 -122 -388 -3 -387 -2 0 130 0 129 98 3 c196 6 661 2
668 -5z m-901 -128 l0 -124 -344 2 c-264 2 -347 6 -353 15 -4 7 -7 61 -7 120
0 91 2 107 16 110 9 2 168 3 352 2 l336 0 0 -125z m1985 -5 c0 -132 0 -134
-22 -135 -13 0 -180 -1 -373 -1 l-350 -1 0 129 c-1 71 3 132 8 135 6 4 173 7
373 7 l364 0 0 -134z m808 -1 l-3 -128 -328 0 c-181 0 -331 3 -333 7 -5 7 -8
140 -5 216 l1 32 335 0 336 0 -3 -127z m-5866 77 c5 -16 4 -190 -1 -191 -18
-4 -428 -4 -439 -1 -9 3 -12 29 -11 98 l1 93 32 3 c52 5 416 3 418 -2z m573
-80 c1 -133 29 -120 -246 -120 l-239 0 0 103 0 103 243 -1 242 0 0 -85z m-695
-264 c52 -2 102 -4 110 -5 13 -1 15 -19 15 -101 l0 -101 -125 7 c-166 8 -269
13 -303 13 l-27 1 1 93 c1 50 3 95 5 98 2 4 54 5 116 2 62 -2 156 -6 208 -7z
m480 -10 c107 -3 200 -5 205 -6 7 0 11 -40 11 -106 l-1 -106 -150 7 c-82 4
-186 8 -230 10 -44 3 -86 4 -92 5 -10 0 -13 27 -13 98 0 54 2 101 6 104 3 3
19 4 37 2 18 -2 120 -6 227 -8z m5521 -30 c5 -51 3 -220 -3 -229 -3 -6 -37
-11 -75 -13 -76 -2 -330 -12 -495 -20 -83 -3 -108 -2 -109 8 -6 96 -2 255 6
255 6 0 150 4 320 8 171 4 311 8 313 10 7 7 42 -8 43 -19z m-2808 -5 c4 -4 6
-61 5 -127 l-3 -119 -55 1 c-61 1 -342 11 -520 19 -74 3 -117 10 -122 18 -4 6
-8 61 -8 121 l0 108 348 -6 c191 -4 351 -11 355 -15z m602 -6 c165 -3 302 -8
304 -10 3 -4 4 -147 2 -233 l-1 -33 -132 5 c-73 3 -194 8 -268 11 -74 3 -178
8 -230 10 -52 2 -105 4 -117 4 -23 1 -23 3 -23 129 l0 129 83 -2 c45 -2 217
-6 382 -10z m1383 -116 c-3 -113 -5 -132 -19 -135 -18 -2 -205 -11 -429 -19
-80 -3 -175 -8 -212 -10 l-68 -5 0 139 c0 102 3 140 13 144 6 2 82 5 167 6 85
1 155 3 156 4 2 1 91 3 198 5 l197 3 -3 -132z"/>
</g>
</svg>
