<?xml version="1.0" standalone="no"?>
<!DOCTYPE svg PUBLIC "-//W3C//DTD SVG 20010904//EN"
 "http://www.w3.org/TR/2001/REC-SVG-20010904/DTD/svg10.dtd">
<svg version="1.0" xmlns="http://www.w3.org/2000/svg"
 width="700.000000pt" height="700.000000pt" viewBox="0 0 700.000000 700.000000"
 preserveAspectRatio="xMidYMid meet">
<metadata>
Created by potrace 1.14, written by Peter Selinger 2001-2017
</metadata>
<g transform="translate(0.000000,700.000000) scale(0.100000,-0.100000)"
fill="#000000" stroke="none">
<path d="M4279 5086 c-4 -4 -146 -38 -634 -152 -126 -29 -247 -58 -267 -64
-41 -12 -48 -28 -46 -120 1 -89 3 -86 -59 -100 -32 -8 -60 -14 -63 -15 -3 -1
-24 -5 -48 -9 l-42 -8 1 -71 1 -72 31 0 31 0 1 -660 0 -660 -106 -1 -106 -1 0
544 c0 328 -3 547 -9 553 -9 9 -29 13 -129 25 -27 3 -65 8 -82 11 -18 2 -48 6
-65 8 -18 3 -59 8 -91 11 -32 4 -68 8 -80 11 -77 17 -166 15 -247 -4 -80 -20
-98 -24 -167 -37 -16 -3 -36 -8 -45 -11 -9 -3 -27 -7 -40 -9 -13 -3 -98 -21
-191 -41 l-167 -37 0 -982 0 -982 63 -7 c86 -9 140 -16 227 -26 41 -5 100 -12
130 -16 30 -3 66 -8 80 -9 14 -2 54 -7 90 -10 36 -3 72 -8 80 -10 8 -2 47 -7
86 -10 l71 -6 0 294 c0 340 -1 338 92 394 116 70 317 54 420 -33 60 -50 62
-62 62 -409 0 -289 1 -314 17 -319 18 -5 59 -11 157 -21 33 -4 76 -9 95 -11
68 -9 105 -14 155 -19 51 -6 186 -22 240 -30 17 -2 57 -7 90 -10 33 -4 70 -8
83 -10 13 -2 53 -7 90 -10 37 -4 87 -11 111 -15 41 -7 149 -6 216 3 17 3 54 8
84 12 30 4 61 8 70 10 9 1 43 6 76 9 33 4 76 9 95 11 86 11 128 16 170 20 70
8 223 27 242 30 20 4 147 18 166 18 9 0 12 249 12 1210 l0 1209 55 -4 55 -4 0
70 c0 39 -4 76 -8 82 -4 6 -27 15 -52 20 -86 15 -163 35 -176 45 -6 5 -10 48
-9 109 1 59 -3 107 -9 116 -9 12 -109 41 -236 69 -63 14 -144 33 -339 81 -249
60 -226 55 -232 50z m-271 -221 c0 -25 -6 -49 -12 -54 -12 -9 -488 -112 -494
-106 -7 7 -10 83 -3 92 7 10 492 121 503 116 4 -2 7 -24 6 -48z m707 -15 c132
-29 243 -56 247 -59 13 -11 15 -101 2 -101 -6 0 -108 20 -226 45 -119 24 -228
46 -243 49 -15 3 -32 9 -38 15 -16 12 -9 114 7 108 6 -2 119 -28 251 -57z
m-200 -385 c72 -13 143 -26 159 -29 16 -3 31 -8 35 -11 3 -4 6 -35 6 -71 1
-76 17 -73 -184 -39 -168 28 -201 33 -218 34 -9 1 -13 23 -13 76 l0 76 43 -6
c23 -4 101 -17 172 -30z m-380 -50 c-1 -36 -4 -68 -7 -71 -6 -6 -27 -10 -93
-18 -27 -4 -72 -11 -100 -16 -27 -5 -66 -11 -85 -14 -19 -2 -56 -8 -82 -12
-38 -5 -48 -4 -49 7 -4 82 -4 110 0 118 3 5 25 11 49 15 89 13 121 18 237 40
66 12 123 21 126 20 3 -2 5 -33 4 -69z m765 -19 c33 -6 114 -20 120 -21 3 -1
29 -5 58 -9 29 -4 58 -14 65 -20 7 -8 12 -36 11 -67 l-1 -54 -34 1 c-31 0
-114 10 -161 19 -11 2 -55 9 -99 16 l-79 11 0 73 0 72 48 -9 c26 -4 58 -10 72
-12z m-1255 -60 c0 -32 -2 -62 -5 -66 -3 -4 -54 -16 -115 -25 -60 -10 -119
-19 -130 -21 -11 -3 -44 -7 -72 -10 l-53 -6 0 60 c0 34 3 63 8 65 4 3 23 8 42
11 117 19 274 47 277 49 2 2 13 3 25 2 21 -2 23 -7 23 -59z m770 -91 c11 -3
38 -7 60 -10 83 -11 191 -27 213 -31 20 -4 22 -10 22 -75 l0 -71 -67 7 c-38 4
-77 9 -88 11 -11 2 -40 6 -65 9 -25 3 -78 10 -118 15 -40 6 -75 10 -78 10 -2
0 -4 34 -4 75 l0 76 53 -6 c28 -3 61 -8 72 -10z m-283 -7 c8 -22 2 -118 -8
-127 -5 -5 -31 -12 -59 -15 -27 -3 -66 -8 -85 -11 -59 -9 -212 -27 -244 -29
-17 -1 -20 7 -21 56 -1 31 1 61 4 67 4 6 25 13 46 16 22 4 69 11 105 16 36 6
81 13 101 15 20 3 56 8 80 13 64 13 76 12 81 -1z m-489 -126 c1 -34 -1 -64 -5
-67 -3 -3 -20 -8 -37 -10 -17 -2 -66 -9 -109 -14 -106 -14 -172 -23 -200 -26
-22 -2 -23 0 -20 63 3 61 5 65 28 68 14 2 52 8 85 14 33 5 83 12 111 15 28 3
71 9 95 14 24 4 45 6 47 5 2 -1 4 -29 5 -62z m1281 53 c55 -9 128 -20 162 -26
l61 -11 -3 -61 c-3 -79 -3 -79 -11 -74 -5 3 -30 8 -58 11 -27 4 -86 11 -130
17 -126 15 -148 19 -154 25 -3 3 -6 35 -6 70 -1 75 -11 71 139 49z m-2629 -75
c-1 -19 -3 -40 -4 -47 -1 -12 -38 -19 -186 -39 -27 -3 -53 -8 -57 -10 -9 -6
-17 31 -15 73 1 35 4 37 72 49 22 4 49 8 60 10 11 2 40 7 65 10 25 3 47 8 49
10 9 9 17 -22 16 -56z m248 45 c108 -10 107 -9 107 -67 l0 -50 -101 7 c-55 3
-107 9 -115 12 -10 3 -14 22 -14 58 0 50 1 52 26 49 14 -1 57 -5 97 -9z m277
-30 c41 -4 77 -9 79 -10 9 -9 7 -95 -3 -98 -11 -5 -31 -3 -121 7 -22 3 -50 5
-62 5 -21 1 -23 6 -23 56 0 55 0 55 28 51 15 -3 61 -8 102 -11z m-834 -67 l-2
-53 -40 -6 c-74 -13 -139 -21 -169 -23 -30 -1 -30 0 -28 47 1 27 3 50 5 52 1
1 26 5 53 9 73 9 119 17 124 22 2 2 17 4 32 4 27 0 28 -1 25 -52z m2142 -104
c-1 -36 -5 -67 -8 -69 -3 -2 -33 -6 -65 -10 -33 -4 -76 -8 -95 -10 -19 -2 -66
-7 -105 -10 -38 -4 -87 -8 -107 -11 l-38 -4 0 69 0 69 68 7 c37 5 76 9 87 10
11 1 40 5 65 8 25 4 74 9 110 13 36 3 67 8 69 10 13 12 21 -16 19 -72z m332
56 c47 -5 114 -12 150 -15 104 -10 100 -7 100 -86 l0 -70 -77 6 c-43 3 -89 8
-103 10 -14 3 -56 7 -95 11 -38 4 -79 8 -90 9 -11 1 -27 3 -35 4 -12 1 -15 15
-14 74 1 39 2 73 3 75 0 2 18 1 39 -2 20 -3 75 -10 122 -16z m-1875 -35 c22
-2 46 -4 53 -4 8 -1 12 -19 12 -55 l0 -55 -37 4 c-21 2 -71 5 -110 6 -40 1
-76 7 -80 13 -7 10 -8 34 -4 88 1 18 3 18 166 3z m-290 -52 c1 -29 -1 -53 -5
-54 -3 0 -14 -2 -25 -5 -11 -2 -38 -6 -60 -8 -22 -3 -62 -7 -90 -11 -82 -11
-80 -13 -81 45 -1 45 1 51 22 55 56 12 72 14 129 20 33 4 62 9 65 12 2 2 13 3
25 1 17 -3 20 -10 20 -55z m485 33 c19 -2 54 -4 78 -5 l43 -1 -3 -52 -3 -53
-70 4 c-144 7 -130 1 -133 55 -3 51 7 67 37 60 9 -3 32 -6 51 -8z m857 -54 c1
-34 -2 -64 -7 -67 -4 -2 -34 -7 -66 -10 -33 -3 -70 -8 -84 -10 -14 -2 -61 -6
-104 -10 -43 -4 -87 -8 -96 -10 -15 -3 -17 5 -16 57 1 70 6 74 96 83 36 3 108
12 160 19 52 7 100 12 105 11 6 -1 11 -29 12 -63z m1263 52 c36 -3 73 -8 82
-10 9 -1 48 -6 85 -9 37 -4 73 -12 78 -19 8 -10 11 -68 6 -119 -1 -8 -96 -3
-171 8 -27 4 -167 17 -187 18 -9 0 -13 22 -13 72 l0 72 28 -3 c15 -1 56 -6 92
-10z m-2911 -64 c-3 -52 -7 -64 -25 -67 -28 -5 -153 -17 -183 -17 -33 -1 -34
0 -35 42 -1 24 4 48 11 54 7 6 13 8 13 6 0 -3 19 -2 43 3 23 4 69 11 102 14
33 4 62 9 64 11 10 9 12 1 10 -46z m644 -99 c14 -1 17 -10 17 -51 0 -27 -4
-50 -10 -51 -5 -1 -21 -1 -35 -1 -14 0 -61 0 -105 1 l-80 1 0 56 0 56 98 -5
c53 -3 105 -6 115 -6z m-343 -61 l0 -60 -47 -1 c-27 0 -57 -2 -68 -4 -11 -2
-48 -7 -82 -11 l-63 -6 0 56 c0 47 3 56 18 56 9 1 33 3 52 6 38 5 158 21 178
23 8 1 12 -17 12 -59z m522 49 c40 -1 78 -4 83 -6 6 -2 9 -18 8 -36 -1 -17 -2
-39 -2 -47 -1 -13 -19 -15 -103 -15 l-103 0 -3 44 c-4 55 2 71 27 66 11 -2 53
-5 93 -6z m1598 -3 c36 -3 99 -9 140 -12 41 -4 82 -8 90 -10 8 -1 26 -3 40 -3
25 -1 25 -3 26 -72 l0 -72 -116 7 c-63 4 -131 9 -150 11 -19 2 -59 5 -87 6
l-53 2 0 78 c0 75 1 78 23 74 12 -2 51 -6 87 -9z m-280 -66 c0 -49 -4 -70 -12
-71 -7 0 -20 -2 -28 -4 -16 -3 -139 -12 -287 -21 l-91 -6 1 67 c2 76 -7 70
105 79 121 10 207 18 209 20 1 0 24 2 52 4 l51 3 0 -71z m-2147 3 c-2 -75 3
-70 -75 -77 -40 -4 -95 -10 -121 -13 l-49 -5 4 53 3 54 70 8 c39 4 74 8 79 10
4 2 27 3 49 2 39 0 41 -1 40 -32z m1657 -49 c0 -54 -3 -64 -17 -65 -10 -1 -29
-2 -43 -4 -36 -4 -228 -17 -275 -18 l-39 -2 1 48 c0 26 1 54 2 62 1 19 23 22
261 41 47 3 87 8 89 10 13 12 21 -16 21 -72z m1260 62 c30 -3 96 -8 145 -12
50 -4 92 -8 95 -11 2 -2 5 -34 5 -70 l1 -65 -91 6 c-49 4 -128 9 -175 12 -47
3 -87 8 -90 10 -5 5 -9 126 -4 135 3 5 18 5 114 -5z m-2251 -162 l2 -53 -33
-3 c-18 -2 -70 -2 -115 0 l-83 3 0 53 0 53 113 0 114 0 2 -53z m251 -7 l0 -53
-102 0 -103 1 -1 53 -1 52 104 0 103 0 0 -53z m-609 26 c1 -25 -2 -98 -5 -100
-1 -2 -51 -6 -110 -9 -59 -4 -115 -7 -124 -8 -14 -1 -18 10 -20 52 -2 28 1 52
5 53 4 0 17 2 27 4 10 2 60 7 110 10 50 4 93 9 95 11 10 10 21 3 22 -13z
m-310 -36 c2 -39 0 -79 -4 -83 -5 -5 -57 -10 -167 -18 l-66 -4 1 49 c1 26 3
50 6 53 2 2 45 7 94 11 50 4 91 8 92 9 1 1 11 2 23 3 14 1 20 -5 21 -20z
m2149 -93 l0 -74 -52 -1 c-29 -1 -75 -2 -103 -4 -27 -1 -97 -4 -155 -6 l-105
-4 -1 68 c-1 44 2 67 10 68 28 3 90 7 201 13 65 4 120 8 121 9 1 1 21 2 43 3
l41 1 0 -73z m465 61 c11 -1 41 -3 68 -4 l47 -1 0 -74 0 -74 -52 4 c-77 5
-256 13 -308 14 l-45 0 -1 76 -1 76 136 -7 c75 -4 145 -9 156 -10z m-955 -87
c0 -58 -3 -68 -17 -69 -10 0 -49 -2 -88 -5 -38 -2 -114 -5 -168 -7 l-98 -5 3
66 3 66 35 2 c88 3 295 16 298 18 1 2 9 3 17 3 12 0 15 -15 15 -69z m1425 57
c28 -2 58 -4 68 -4 14 -1 17 -11 17 -70 l0 -68 -92 4 c-51 2 -124 5 -163 7
-38 2 -80 4 -92 5 -22 1 -23 5 -23 72 l0 70 118 -7 c64 -3 140 -8 167 -9z
m-2422 -54 c13 -2 8 -99 -5 -103 -11 -4 -191 -3 -209 1 -11 2 -4 96 8 101 10
4 169 4 206 1z m257 -48 l0 -53 -105 0 -105 0 0 49 c0 27 5 51 11 53 6 2 53 3
105 3 l94 0 0 -52z m-608 -68 c-2 -16 -5 -31 -6 -32 -1 -2 -59 -5 -129 -8
l-127 -6 0 55 c0 47 3 56 18 56 74 2 228 13 232 17 8 8 17 -50 12 -82z m-308
10 c-1 -25 -4 -49 -8 -53 -4 -4 -29 -8 -54 -9 -26 0 -73 -2 -104 -4 -32 -1
-61 1 -65 5 -9 9 -12 96 -3 96 3 1 50 3 105 7 55 3 102 7 103 8 14 13 27 -12
26 -50z m2674 -44 l52 -1 0 -70 c0 -66 -1 -70 -22 -71 -28 0 -347 0 -368 0
-13 1 -15 14 -14 69 1 37 2 71 3 75 0 5 67 6 149 3 81 -2 171 -5 200 -5z
m-528 -71 l0 -70 -42 -1 c-24 0 -117 -2 -208 -2 l-165 -2 -2 67 -1 67 46 3
c26 2 120 4 210 6 l162 3 0 -71z m-1233 9 c1 -30 -4 -52 -11 -54 -6 -2 -53 -6
-103 -8 l-93 -4 0 53 0 53 43 3 c23 2 69 4 103 5 l61 2 0 -50z m736 42 c4 -1
7 -31 5 -68 l-3 -67 -170 1 c-93 1 -177 2 -187 2 -13 1 -16 12 -16 56 1 31 6
59 12 62 6 4 74 9 151 11 76 1 140 4 142 5 2 2 34 1 66 -2z m1455 0 l53 -1 -3
-67 -3 -67 -178 -1 -177 0 0 73 0 73 128 -5 c70 -2 151 -5 180 -5z m-2438 -54
l0 -54 -67 -2 c-38 -2 -88 -4 -113 -4 l-45 -2 0 45 c-1 25 2 50 6 55 4 6 55
11 113 13 l106 3 0 -54z m-359 -39 c8 -69 3 -77 -54 -80 -29 -2 -87 -2 -129 0
l-78 4 0 48 c0 27 5 50 10 52 6 2 63 4 129 6 l119 3 3 -33z m-309 -24 c2 -25
1 -49 -2 -54 -3 -4 -57 -7 -120 -6 l-115 1 -3 50 -3 50 120 3 119 2 4 -46z
m2125 -110 c20 -4 22 -10 21 -69 -1 -37 -6 -65 -12 -67 -6 -2 -99 -3 -206 -3
l-195 1 -3 64 c-2 36 1 66 7 70 12 7 355 11 388 4z m585 -3 c13 -1 16 -12 15
-71 l-2 -70 -200 2 -199 3 -1 67 c0 60 2 68 20 70 16 2 309 1 367 -1z m-1052
-66 c0 -45 -4 -65 -12 -66 -12 -1 -78 -1 -300 1 l-68 0 0 65 0 65 190 0 190 0
0 -65z m1502 43 c2 -13 1 -44 0 -70 l-4 -48 -179 0 -179 0 0 70 0 70 179 0
c179 0 180 0 183 -22z m-3167 -10 c6 -3 10 -26 9 -50 l0 -43 -122 -3 -122 -3
0 53 0 53 113 -1 c62 0 117 -3 122 -6z m313 -48 l-3 -54 -125 0 -125 0 -3 55
-3 55 131 0 131 -1 -3 -55z m-313 -137 c6 -2 9 -20 8 -41 -1 -20 -2 -44 -2
-53 -1 -11 -8 -15 -23 -13 -13 2 -66 5 -118 7 l-95 2 -3 53 -3 53 113 -2 c62
-1 118 -4 123 -6z m223 -2 l93 -1 -3 -57 -3 -58 -35 2 c-19 0 -77 3 -127 4
l-93 4 0 56 0 57 38 -3 c20 -2 79 -4 130 -4z m1300 -11 l142 -3 0 -69 0 -69
-171 7 c-95 3 -179 7 -188 8 -12 2 -17 17 -19 68 l-3 64 48 -2 c26 -1 112 -3
191 -4z m1640 1 c13 -1 18 -130 5 -132 -8 -1 -64 -4 -265 -12 l-98 -4 0 71 0
72 127 3 c70 1 129 3 130 4 1 2 73 0 101 -2z m-1032 -16 c19 -4 21 -12 21 -67
0 -35 -5 -66 -11 -70 -6 -4 -54 -5 -106 -2 -52 2 -138 6 -190 9 -52 2 -98 4
-102 4 -5 1 -8 32 -8 69 l0 68 188 -3 c103 -2 196 -6 208 -8z m602 -38 c1 -78
-5 -97 -31 -95 -12 0 -99 -2 -192 -6 l-171 -8 0 76 -1 75 76 3 c42 2 130 4
197 5 l120 2 2 -52z"/>
</g>
</svg>
