<svg width="469" height="102" viewBox="0 0 469 102" fill="none" xmlns="http://www.w3.org/2000/svg">
<path d="M12.3884 93.8664H3.7964L1.94296 97.986H0.24707L7.30076 82.5581H8.91412L15.9677 97.986H14.2494L12.3884 93.8664ZM11.7956 92.5457L8.08862 84.254L4.38173 92.5457H11.7956Z" fill="#FFFAF4"/>
<path d="M34.2622 83.9688H26.0454L26.0679 97.986H24.4546V82.5581H34.2622V83.9688Z" fill="#FFFAF4"/>
<path d="M53.5024 96.5827V97.9933H42.5842V82.5654H53.1647V83.9761H44.22V89.469H52.2042V90.8571H44.22V96.5902H53.5024V96.5827Z" fill="#FFFAF4"/>
<path d="M75.5412 82.5581V97.986H73.9279V90.8648H64.2629V97.986H62.6345V82.5581H64.2629V89.4391H73.9279V82.5581H75.5412Z" fill="#FFFAF4"/>
<path d="M96.3796 83.9688H90.9618V97.986H89.3485V83.9688H83.9307V82.5581H96.3796V83.9688Z" fill="#FFFAF4"/>
<path d="M103.223 90.2794C103.223 85.7621 106.66 82.4302 111.312 82.4302C113.556 82.4302 115.59 83.1806 116.955 84.6813L115.92 85.717C114.659 84.4413 113.121 83.8861 111.357 83.8861C107.628 83.8861 104.829 86.6175 104.829 90.2794C104.829 93.9338 107.628 96.6726 111.357 96.6726C113.121 96.6726 114.659 96.1173 115.92 94.8191L116.955 95.8548C115.59 97.3556 113.556 98.121 111.29 98.121C106.66 98.121 103.223 94.7968 103.223 90.2794Z" fill="#FFFAF4"/>
<path d="M135.76 83.9688H130.342V97.986H128.729V83.9688H123.311V82.5581H135.76V83.9688Z" fill="#FFFAF4"/>
<path d="M156.591 93.8215C156.591 96.4704 154.715 97.986 150.993 97.986H144.157V82.5581H150.573C153.814 82.5581 155.818 83.9238 155.818 86.5052C155.818 88.2911 154.85 89.4617 153.304 90.032C155.465 90.4747 156.591 91.7729 156.591 93.8215ZM145.763 89.5516H150.475C152.839 89.5516 154.182 88.5838 154.182 86.7078C154.182 84.8543 152.839 83.8638 150.475 83.8638H145.763V89.5516ZM154.978 93.7163C154.978 91.7128 153.589 90.8124 150.993 90.8124H145.763V96.6954H150.993C153.589 96.6954 154.978 95.7424 154.978 93.7163Z" fill="#FFFAF4"/>
<path d="M164.86 90.2794C164.86 85.7771 168.297 82.4302 172.972 82.4302C177.602 82.4302 181.061 85.7621 181.061 90.2794C181.061 94.7968 177.602 98.121 172.972 98.121C168.289 98.121 164.86 94.7743 164.86 90.2794ZM179.425 90.2794C179.425 86.595 176.671 83.8861 172.972 83.8861C169.242 83.8861 166.466 86.595 166.466 90.2794C166.466 93.9563 169.242 96.6726 172.972 96.6726C176.671 96.6651 179.425 93.9563 179.425 90.2794Z" fill="#FFFAF4"/>
<path d="M214.679 82.5581V97.986H213.065V90.8648H203.415V97.986H201.78V82.5581H203.415V89.4391H213.065V82.5581H214.679Z" fill="#FFFAF4"/>
<path d="M236.328 96.5827V97.9933H225.417V82.5654H235.997V83.9761H227.053V89.469H235.037V90.8571H227.053V96.5902H236.328V96.5827Z" fill="#FFFAF4"/>
<path d="M259.65 96.5829V101.453H258.127V97.9935H244.664L244.642 101.453H243.126L243.149 96.5829H243.914C246.12 96.4553 246.608 92.4782 246.758 87.5632L246.931 82.5581H257.339V96.5754H259.65V96.5829ZM246.225 96.5829H255.725V83.9763H248.341L248.214 87.7207C248.079 91.7278 247.704 95.4573 246.225 96.5829Z" fill="#FFFAF4"/>
<path d="M280.946 93.8215C280.946 96.4704 279.07 97.986 275.348 97.986H268.512V82.5581H274.928C278.169 82.5581 280.173 83.9238 280.173 86.5052C280.173 88.2911 279.205 89.4617 277.659 90.032C279.82 90.4747 280.946 91.7729 280.946 93.8215ZM270.118 89.5516H274.83C277.194 89.5516 278.537 88.5838 278.537 86.7078C278.537 84.8543 277.194 83.8638 274.83 83.8638H270.118V89.5516ZM279.332 93.7163C279.332 91.7128 277.944 90.8124 275.348 90.8124H270.118V96.6954H275.348C277.952 96.6954 279.332 95.7424 279.332 93.7163Z" fill="#FFFAF4"/>
<path d="M290.551 82.5581H292.164V95.3448L302.039 82.5581H303.518V97.986H301.904V85.222L292.029 97.986H290.551V82.5581Z" fill="#FFFAF4"/>
<path d="M326.802 90.9174H323.605V97.9935H322.015V90.9174H318.795L314.083 97.9935H312.192L317.482 90.032L312.59 82.5581H314.353L318.788 89.4767H322.022V82.5581H323.613V89.4767H326.81L331.267 82.5581H333.03L328.138 90.032L333.428 97.9935H331.529L326.802 90.9174Z" fill="#FFFAF4"/>
<path d="M341.555 82.5581H343.168V95.3448L353.043 82.5581H354.522V97.986H352.908V85.222L343.033 97.986H341.555V82.5581Z" fill="#FFFAF4"/>
<path d="M381.273 82.5581V97.986H379.712V85.6421L373.656 96.0276H372.883L366.82 85.7097V97.986H365.26V82.5581H366.61L373.311 94.0016L379.945 82.5581H381.273Z" fill="#FFFAF4"/>
<path d="M390.668 90.2794C390.668 85.7771 394.105 82.4302 398.78 82.4302C403.41 82.4302 406.869 85.7621 406.869 90.2794C406.869 94.7968 403.41 98.121 398.78 98.121C394.105 98.121 390.668 94.7743 390.668 90.2794ZM405.241 90.2794C405.241 86.595 402.487 83.8861 398.787 83.8861C395.058 83.8861 392.282 86.595 392.282 90.2794C392.282 93.9563 395.058 96.6726 398.787 96.6726C402.487 96.6651 405.241 93.9563 405.241 90.2794Z" fill="#FFFAF4"/>
<path d="M414.988 90.2794C414.988 85.7621 418.425 82.4302 423.077 82.4302C425.321 82.4302 427.355 83.1806 428.72 84.6813L427.685 85.717C426.424 84.4413 424.886 83.8861 423.122 83.8861C419.393 83.8861 416.594 86.6175 416.594 90.2794C416.594 93.9338 419.393 96.6726 423.122 96.6726C424.886 96.6726 426.424 96.1173 427.685 94.8191L428.72 95.8548C427.355 97.3556 425.321 98.121 423.055 98.121C418.417 98.121 414.988 94.7968 414.988 90.2794Z" fill="#FFFAF4"/>
<path d="M447.518 83.9688H442.1V97.986H440.486V83.9688H435.069V82.5581H447.518V83.9688Z" fill="#FFFAF4"/>
<path d="M455.914 82.5581H457.528V95.3448L467.403 82.5581H468.881V97.986H467.268V85.222L457.393 97.986H455.914V82.5581Z" fill="#FFFAF4"/>
<path d="M0.344727 25.0178C0.344727 10.6403 11.3154 0.149902 26.1131 0.149902C33.617 0.149902 40.1454 2.72381 44.5953 7.72141L40.0779 12.0961C36.3184 8.134 31.741 6.33312 26.3908 6.33312C15.42 6.33312 7.28584 14.2497 7.28584 25.0178C7.28584 35.7859 15.4125 43.7026 26.3908 43.7026C31.741 43.7026 36.3259 41.8266 40.0779 37.8646L44.5953 42.2394C40.1529 47.237 33.6171 49.8783 26.0456 49.8783C11.3154 49.8858 0.344727 39.4028 0.344727 25.0178Z" fill="#FFFAF4"/>
<path d="M94.4962 36.0641C94.4962 44.4009 88.3806 49.3309 76.4343 49.3309H54.2078V0.705566H75.1136C85.6716 0.705566 92.0649 5.08028 92.0649 13.207C92.0649 18.5573 89.2135 22.3093 84.4935 24.1177C91.0294 25.7161 94.4962 29.7383 94.4962 36.0641ZM61.0888 22.0992H74.6334C81.3044 22.0992 85.0563 19.3903 85.0563 14.1826C85.0563 8.97484 81.2969 6.19848 74.6334 6.19848H61.0888V22.0992ZM87.4801 35.5088C87.4801 29.8809 83.593 27.382 76.2992 27.382H61.0888V43.8455H76.2992C83.593 43.8455 87.4801 41.2043 87.4801 35.5088Z" fill="#FFFAF4"/>
<path d="M102.098 25.0178C102.098 10.7754 113.076 0.149902 128.009 0.149902C142.806 0.149902 153.785 10.7078 153.785 25.0178C153.785 39.3277 142.806 49.8858 128.009 49.8858C113.076 49.8858 102.098 39.2602 102.098 25.0178ZM146.836 25.0178C146.836 14.2497 138.784 6.33312 128.009 6.33312C117.105 6.33312 109.046 14.2497 109.046 25.0178C109.046 35.7859 117.105 43.7026 128.009 43.7026C138.777 43.7026 146.836 35.7859 146.836 25.0178Z" fill="#FFFAF4"/>
<path d="M165.071 0.705566H171.944V38.2176L200.707 0.705566H207.1V49.3309H200.286V11.8863L171.464 49.3309H165.071V0.705566Z" fill="#FFFAF4"/>
<path d="M280.706 0.705566V49.3309H273.892V6.74625H252.356L251.868 20.9887C251.238 40.2962 248.251 49.8862 238.669 49.8862C237.28 49.8862 235.96 49.7436 234.294 49.3309L234.782 43.1477C235.615 43.3578 236.237 43.4253 237.003 43.4253C243.043 43.4253 245.13 36.2666 245.685 21.1988L246.45 0.705566H280.706Z" fill="#FFFAF4"/>
<path d="M360.9 25.0178C360.9 39.3277 350.342 49.8858 336.167 49.8858C322.968 49.8858 312.897 40.6486 311.644 27.7944H302.752V49.3305H295.878V0.705184H302.752V21.5436H311.719C313.317 9.04204 323.245 0.149902 336.174 0.149902C350.342 0.149902 360.9 10.7078 360.9 25.0178ZM353.951 25.0178C353.951 14.1146 346.245 6.40072 336.167 6.40072C326.232 6.40072 318.518 14.1146 318.518 25.0178C318.518 35.921 326.232 43.635 336.167 43.635C346.245 43.635 353.951 35.921 353.951 25.0178Z" fill="#FFFAF4"/>
<path d="M417.209 43.2902V59.9639H410.748V49.3384H370.738L370.67 59.9639H364.209L364.277 43.2902H366.633C373.304 42.8775 374.902 31.134 375.39 16.3363L375.878 0.705566H410.051V43.2902H417.209ZM375.735 43.2902H403.177V6.74625H381.851L381.506 16.959C381.085 28.8377 379.907 39.5383 375.735 43.2902Z" fill="#FFFAF4"/>
<path d="M426.754 0.705566H433.628V38.2176L462.39 0.705566H468.784V49.3309H461.97V11.8863L433.148 49.3309H426.754V0.705566Z" fill="#FFFAF4"/>
</svg>
